<svg width="40" height="57" fill="none" xmlns="http://www.w3.org/2000/svg"><path fill-rule="evenodd" clip-rule="evenodd" d="M24.886 22.732h9.309v-2.648h-9.309v2.648zm2.205 5.78c-.593.598-.967 1.41-1.12 2.435h7.24c-.077-1.093-.453-1.92-1.118-2.489-.674-.564-1.503-.846-2.495-.846-1.075 0-1.914.3-2.507.9zm6.283-3.557c1.122.49 2.046 1.268 2.774 2.329.663.936 1.089 2.02 1.283 3.254.114.72.16 1.766.14 3.124H25.869c.07 1.578.624 2.685 1.682 3.32.64.394 1.412.593 2.317.593.953 0 1.732-.242 2.33-.721.328-.262.617-.622.865-1.084h4.289c-.114.932-.635 1.881-1.557 2.845-1.438 1.53-3.453 2.294-6.043 2.294-2.139 0-4.026-.643-5.657-1.935-1.639-1.29-2.453-3.392-2.453-6.3 0-2.727.738-4.819 2.212-6.275 1.477-1.452 3.39-2.183 5.743-2.183 1.4 0 2.658.247 3.778.74zm-26.62 6.049v5.675h5.275c.942 0 1.678-.125 2.2-.374.954-.466 1.429-1.349 1.429-2.657 0-1.11-.459-1.869-1.383-2.284-.517-.23-1.242-.352-2.172-.36H6.754zm0-8.217v4.696h5.283c.94 0 1.707-.177 2.298-.529.587-.352.883-.976.883-1.867 0-.994-.389-1.648-1.166-1.968-.674-.22-1.53-.332-2.569-.332H6.754zm11.797-1.428c.664.905.997 1.987.997 3.248 0 1.298-.333 2.345-1.005 3.135-.376.441-.928.846-1.657 1.21 1.107.397 1.942 1.023 2.51 1.88.563.854.846 1.895.846 3.118 0 1.261-.323 2.393-.97 3.394a5.928 5.928 0 01-1.537 1.674c-.692.52-1.509.875-2.453 1.07-.945.192-1.966.285-3.07.285H2.425V19.09h10.497c2.65.039 4.525.794 5.63 2.268z" fill="#2072FF"/></svg>