<svg width="36" height="36" fill="none" xmlns="http://www.w3.org/2000/svg"><g clip-path="url(#clip0_7081_5287)"><circle cx="18" cy="18" r="18" fill="url(#paint0_linear_7081_5287)"/><path d="M23.206 12.27s1.513-.59 1.387.845c-.043.59-.42 2.659-.715 4.896l-1.008 6.626s-.084.97-.84 1.14c-.757.168-1.89-.592-2.101-.76-.168-.127-3.151-2.026-4.201-2.955-.294-.253-.63-.76.042-1.35l4.411-4.22c.504-.507 1.008-1.689-1.092-.254l-5.882 4.01s-.672.421-1.933.042l-2.73-.845s-1.009-.633.714-1.266c4.2-1.983 9.369-4.009 13.948-5.908z" fill="#fff"/></g><defs><linearGradient id="paint0_linear_7081_5287" x1="23.931" y1="5.723" x2="15.087" y2="27.052" gradientUnits="userSpaceOnUse"><stop stop-color="#2AABEE"/><stop offset="1" stop-color="#229ED9"/></linearGradient><clipPath id="clip0_7081_5287"><path fill="#fff" d="M0 0h36v36H0z"/></clipPath></defs></svg>