<svg width="40" height="57" fill="none" xmlns="http://www.w3.org/2000/svg"><path fill-rule="evenodd" clip-rule="evenodd" d="M24.886 22.73h9.309v-2.648h-9.309v2.649zm2.205 5.78c-.593.599-.967 1.411-1.12 2.436h7.24c-.077-1.094-.453-1.92-1.118-2.489-.674-.565-1.503-.846-2.495-.846-1.075 0-1.914.3-2.507.899zm6.283-3.556c1.122.49 2.046 1.267 2.774 2.328.663.936 1.089 2.021 1.283 3.255.114.72.16 1.765.14 3.124H25.869c.07 1.577.624 2.685 1.682 3.319.64.395 1.412.593 2.317.593.953 0 1.732-.24 2.33-.72.328-.262.617-.623.865-1.084h4.289c-.114.931-.635 1.881-1.557 2.845-1.438 1.529-3.453 2.294-6.043 2.294-2.139 0-4.026-.644-5.657-1.936-1.639-1.29-2.453-3.392-2.453-6.3 0-2.727.738-4.818 2.212-6.274 1.477-1.452 3.39-2.183 5.743-2.183 1.4 0 2.658.247 3.778.739zm-26.62 6.048v5.676h5.275c.942 0 1.678-.125 2.2-.375.954-.465 1.429-1.348 1.429-2.656 0-1.11-.459-1.87-1.383-2.284-.517-.231-1.242-.353-2.172-.36H6.754zm0-8.217v4.696h5.283c.94 0 1.707-.176 2.298-.529.587-.352.883-.976.883-1.867 0-.994-.389-1.648-1.166-1.968-.674-.22-1.53-.332-2.569-.332H6.754zm11.797-1.427c.664.905.997 1.986.997 3.248 0 1.298-.333 2.345-1.005 3.134-.376.442-.928.847-1.657 1.211 1.107.397 1.942 1.023 2.51 1.88.563.854.846 1.894.846 3.118 0 1.261-.323 2.393-.97 3.393a5.93 5.93 0 01-1.537 1.675c-.692.52-1.509.874-2.453 1.069-.945.192-1.966.285-3.07.285H2.425V19.09h10.497c2.65.038 4.525.794 5.63 2.268z" fill="#2072FF"/></svg>