<svg width="48" height="48" fill="none" xmlns="http://www.w3.org/2000/svg"><rect width="48" height="48" rx="24" fill="#0056FF"/><g clip-path="url(#clip0_7081_5292)"><path fill-rule="evenodd" clip-rule="evenodd" d="M26.676 19.97h5.097v-1.523h-5.097v1.524zm1.207 3.327c-.325.345-.53.812-.613 1.401h3.965c-.042-.629-.248-1.104-.613-1.432-.369-.325-.823-.487-1.366-.487-.588 0-1.048.173-1.373.518zm3.441-2.047c.615.282 1.12.73 1.519 1.34.363.539.596 1.163.703 1.873.062.415.087 1.016.077 1.798h-6.41c.039.908.342 1.545.922 1.91.35.227.773.341 1.268.341.522 0 .949-.138 1.276-.414.18-.15.338-.358.474-.624h2.349c-.063.536-.348 1.083-.853 1.637-.787.88-1.89 1.32-3.309 1.32a4.7 4.7 0 01-3.098-1.113c-.897-.743-1.343-1.952-1.343-3.626 0-1.57.404-2.773 1.21-3.61.81-.836 1.857-1.257 3.146-1.257.766 0 1.456.142 2.07.425zm-14.578 3.481v3.266h2.889c.516 0 .919-.072 1.205-.215.522-.268.782-.776.782-1.53 0-.638-.251-1.075-.757-1.313-.283-.133-.68-.203-1.19-.208h-2.929zm0-4.729v2.703h2.893c.515 0 .935-.102 1.259-.305.321-.202.483-.561.483-1.074 0-.572-.213-.949-.638-1.133-.37-.127-.838-.19-1.407-.19h-2.59zm6.46-.821c.364.52.546 1.143.546 1.869 0 .747-.182 1.35-.55 1.804-.206.254-.508.487-.908.697.607.228 1.064.588 1.375 1.081.308.492.463 1.09.463 1.795 0 .726-.176 1.377-.53 1.953a3.354 3.354 0 01-.843.963c-.379.3-.826.504-1.343.616a8.026 8.026 0 01-1.68.164h-5.361V17.875h5.748c1.451.023 2.478.457 3.084 1.306z" fill="#fff"/></g><defs><clipPath id="clip0_7081_5292"><path fill="#fff" transform="translate(14.375 17)" d="M0 0h19.25v14H0z"/></clipPath></defs></svg>