<svg width="61" height="57" fill="none" xmlns="http://www.w3.org/2000/svg"><path d="M45.115 31.923c0 .783-.379 1.531-1.01 1.905L41.238 35.5c-.938.534-2.146.232-2.687-.694a1.912 1.912 0 01.703-2.652l.65-.374a2.839 2.839 0 00-.975-.445c-1.37-.303-2.74.498-3.101 1.851a2.563 2.563 0 001.244 2.92c.415.23.884.338 1.37.338.848-.018 1.75 0 2.597 0 1.299 0 2.345 1.032 2.345 2.296 0 1.264-1.046 2.296-2.345 2.296h-2.47a7.514 7.514 0 01-3.77-.908c-2.885-1.584-4.364-4.93-3.498-8.135 1.01-3.72 4.851-5.998 8.656-5.144a7.316 7.316 0 014.419 2.955c.487.712.74 1.192.74 2.118zM3.618 19.801c1.515 0 2.76 1.21 2.76 2.706 0 1.495-1.227 2.705-2.76 2.705A2.715 2.715 0 01.86 22.506c0-1.495 1.226-2.705 2.76-2.705zM1.31 28.968c0-1.281 1.046-2.314 2.344-2.314C4.953 26.654 6 27.687 6 28.968v9.755c0 1.282-1.046 2.314-2.345 2.314-1.298 0-2.344-1.032-2.344-2.314v-9.755zm15.203 6.782a2.38 2.38 0 013.318.143 2.27 2.27 0 01-.144 3.257 7.456 7.456 0 01-4.96 1.905c-4.04 0-7.34-3.222-7.34-7.21 0-3.969 3.3-7.209 7.34-7.209a7.46 7.46 0 014.96 1.905c.956.854 1.028 2.332.144 3.258a2.364 2.364 0 01-3.318.142 2.621 2.621 0 00-1.786-.676c-1.442 0-2.614 1.121-2.614 2.563 0 1.442 1.172 2.563 2.614 2.563a2.538 2.538 0 001.786-.64zm12.353-9.078c1.299 0 2.345 1.032 2.345 2.314S30.165 31.3 28.866 31.3c-1.442 0-2.615 1.157-2.615 2.564v4.877c0 1.282-1.046 2.314-2.344 2.314-1.299 0-2.345-1.032-2.345-2.314v-4.877c0-3.988 3.265-7.192 7.304-7.192zm24.545 9.755c1.298.071 2.29 1.157 2.218 2.42-.072 1.265-1.172 2.244-2.453 2.19-3.877-.196-6.925-3.364-6.925-7.173 0-3.97 3.265-7.192 7.304-7.192 4.04 0 7.304 3.222 7.304 7.192v4.877c0 1.282-1.046 2.314-2.344 2.314-1.299 0-2.345-1.032-2.345-2.314v-4.877c0-1.425-1.172-2.564-2.615-2.564-1.443 0-2.615 1.157-2.615 2.564 0 1.37 1.082 2.492 2.471 2.563z" fill="#586F79"/></svg>