<svg width="69" height="23" fill="none" xmlns="http://www.w3.org/2000/svg"><path d="M.7 1h3.48L14.5 16V1h3.6v21h-3.48L4.3 7v15H.7V1zm25.343 21.33c-.86 0-1.63-.12-2.31-.36-.66-.26-1.22-.61-1.68-1.05a4.69 4.69 0 01-1.05-1.59c-.24-.6-.36-1.26-.36-1.98 0-1.58.47-2.75 1.41-3.51.94-.78 2.32-1.17 4.14-1.17h4.95v-.87c0-1.2-.27-2.02-.81-2.46-.52-.46-1.35-.69-2.49-.69-1.02 0-1.77.16-2.25.48-.48.32-.76.76-.84 1.32h-3.21c.04-.68.21-1.3.51-1.86.32-.58.75-1.08 1.29-1.5.56-.42 1.23-.74 2.01-.96.78-.24 1.66-.36 2.64-.36.98 0 1.86.11 2.64.33.8.22 1.48.57 2.04 1.05.56.46.99 1.06 1.29 1.8.32.74.48 1.63.48 2.67v6.33c0 .84.01 1.58.03 2.22.02.62.07 1.23.15 1.83h-3c-.06-.46-.11-.85-.15-1.17-.02-.32-.03-.72-.03-1.2-.38.74-1.04 1.38-1.98 1.92-.92.52-2.06.78-3.42.78zm.9-2.88c.56 0 1.09-.07 1.59-.21.52-.16.97-.38 1.35-.66.38-.3.68-.66.9-1.08.24-.44.36-.94.36-1.5v-.87h-4.35c-.84 0-1.52.18-2.04.54-.5.36-.75.89-.75 1.59 0 .66.23 1.19.69 1.59.48.4 1.23.6 2.25.6zm16.21 2.7c-1.82 0-3.13-.39-3.93-1.17-.78-.78-1.17-2.04-1.17-3.78V8.92h-2.25V6.1h2.25V2.5h3.3v3.6h4.05v2.82h-4.05v7.83c0 .94.17 1.6.51 1.98.36.36 1.04.54 2.04.54.6 0 1.2-.03 1.8-.09V22c-.38.04-.77.07-1.17.09-.4.04-.86.06-1.38.06zm4.66-16.05h3.3V22h-3.3V6.1zm1.65-1.8c-.62 0-1.13-.19-1.53-.57-.38-.4-.57-.91-.57-1.53s.19-1.12.57-1.5c.4-.4.91-.6 1.53-.6s1.12.2 1.5.6c.4.38.6.88.6 1.5s-.2 1.13-.6 1.53c-.38.38-.88.57-1.5.57zm8.866 9.42L52.9 6.1h3.72l3.87 5.34L64.3 6.1h3.6l-5.37 7.5L68.2 22h-3.78l-4.05-6.18L56.26 22H52.6l5.73-8.28z" fill="#FA2028"/></svg>