<svg width="172" height="30" fill="none" xmlns="http://www.w3.org/2000/svg"><g clip-path="url(#clip0_5143_8327)" fill-rule="evenodd" clip-rule="evenodd"><path d="M13.674 0c4.479 0 8.529 1.946 11.292 5.08a15.511 15.511 0 00-7.099-1.71c-3.764 0-7.194 1.33-9.91 3.513L5.86 4.794v9.114h9.148l-2.144-2.136a8.712 8.712 0 015.337-1.804c5.002 0 9.052 4.035 9.052 9.02a8.927 8.927 0 01-1.191 4.461C23.346 27.39 18.82 30 13.674 30c-4.335 0-8.242-1.851-11.006-4.747 2.049.997 4.336 1.52 6.766 1.52 3.764 0 7.194-1.33 9.91-3.514l2.096 2.09v-9.115h-9.148l2.145 2.136c-1.525 1.092-3.383 1.757-5.384 1.757C4.05 20.127 0 16.092 0 11.107 0 9.21.572 7.5 1.572 6.029 4.288 2.373 8.72 0 13.674 0z" fill="#EE9C2B"/><path d="M59.411 20.08c-.19.807-.38 1.424-.619 1.899-.238.474-.524.854-.905 1.14-.381.284-.858.474-1.43.569-.571.095-1.334.142-2.191.142H44.117l.667-3.18h8.767c.429 0 .762 0 1.048-.048.286-.047.477-.095.667-.237.19-.142.286-.285.381-.57.096-.237.191-.57.286-.997l.096-.38c.095-.521.142-.854.142-1.044 0-.522-.333-.807-1.048-.807H49.74c-1.095 0-1.953-.237-2.572-.712-.62-.474-.953-1.091-.953-1.898v-.285c0-.095 0-.19.047-.285l.763-3.513c.19-.807.38-1.424.619-1.898.238-.475.524-.855.905-1.14.381-.284.858-.427 1.43-.522.571-.095 1.286-.142 2.144-.142h10.291l-.667 3.18h-8.72c-.428 0-.761 0-1.047.048-.286.047-.477.095-.667.237-.19.142-.286.285-.43.57a6.74 6.74 0 00-.285.996l-.095.38c-.096.522-.143.855-.143.997 0 .332.143.57.38.665.24.095.716.142 1.43.142h5.098c1.954 0 2.954.902 2.954 2.753 0 .332-.047.665-.095.997l-.715 2.943zm93.862-9.446l.953-4.415h3.764l-3.764 17.516h-9.672c-.715 0-1.287-.047-1.763-.095-.477-.047-.858-.142-1.144-.332-.285-.142-.524-.38-.619-.617-.143-.285-.191-.617-.191-1.044 0-.475.048-.997.191-1.662l1.239-5.743c.19-.808.381-1.425.619-1.9.238-.474.524-.854.905-1.139.382-.284.858-.427 1.43-.522.572-.095 1.286-.142 2.144-.142 1.953.095 3.954.095 5.908.095zm-.667 3.18h-4.479c-.429 0-.762 0-1.048.048-.286.047-.476.095-.667.237-.191.143-.286.285-.429.57a6.88 6.88 0 00-.286.996l-.667 3.18c-.095.523-.143.855-.143.998 0 .332.096.57.334.664.238.095.714.143 1.429.143h4.526l1.43-6.836zm-59.795-3.18h6.384c1.43 0 2.383.142 2.954.427.572.285.81.807.81 1.662 0 .474-.047.996-.238 1.66l-2.001 9.447h-3.716l1.762-8.164c.096-.523.143-.855.143-.997 0-.333-.095-.57-.333-.665-.238-.095-.715-.142-1.43-.142h-5.003l-.666 3.18L90 23.878h-3.764l2.81-13.15 3.765-.094zm77.995 8.165h-8.719l.667-3.18h5.098c.143-.57.191-.903.191-.95 0-.617-.477-.902-1.477-.902h-3.002c-.381 0-.762 0-1 .047a2.173 2.173 0 00-.667.238 1.292 1.292 0 00-.429.57 7.859 7.859 0 00-.286.949l-.667 3.18c-.095.427-.143.712-.143.997 0 .332.095.57.334.664.238.095.714.19 1.429.19h7.671l-.667 3.133h-9.148a17.99 17.99 0 01-1.811-.095 3.27 3.27 0 01-1.143-.332c-.286-.142-.477-.38-.62-.617-.142-.238-.19-.57-.19-.997 0-.237 0-.475.048-.76.047-.284.095-.57.19-.901l1.191-5.697c.286-1.329.81-2.278 1.62-2.895.81-.57 2.001-.855 3.526-.855h5.384c1.429 0 2.382.143 2.954.428.572.285.81.854.81 1.661 0 .475-.048 1.044-.238 1.661l-.906 4.463zm-30.969 1.281c-.143.807-.381 1.424-.572 1.899-.238.474-.524.854-.905 1.14-.381.284-.858.474-1.43.569-.571.095-1.334.142-2.191.142h-5.813c-1.382 0-2.382-.142-2.954-.427-.572-.285-.81-.807-.81-1.662 0-.474.048-.996.191-1.66l1.238-5.745c.191-.806.382-1.424.62-1.898.238-.475.524-.855.905-1.14.381-.284.858-.427 1.429-.522.572-.095 1.287-.142 2.144-.142h5.813c.763 0 1.382.047 1.858.095.477.047.858.19 1.144.332.286.143.476.38.619.617.096.285.191.617.191.997 0 .475-.095.997-.238 1.661l-1.239 5.744zm-3.478-1.281l.667-3.18c.095-.523.143-.855.143-.998 0-.332-.096-.57-.334-.664-.238-.095-.714-.143-1.429-.143h-2.954c-.429 0-.763 0-1.048.048-.286.047-.477.095-.667.237-.191.143-.334.285-.429.57-.096.237-.191.57-.286.996l-.667 3.18c-.095.523-.143.855-.143.998 0 .332.095.57.333.664.239.095.715.143 1.43.143h3.001c.477 0 .858 0 1.096-.048a2.16 2.16 0 00.667-.237c.143-.142.286-.332.382-.57.095-.285.19-.617.238-.997zm-13.15 4.984h-7.814c-.763 0-1.382-.048-1.858-.095-.477-.095-.858-.19-1.144-.333-.286-.142-.476-.38-.619-.617-.096-.285-.191-.617-.191-.997 0-.474.095-.996.191-1.66l1.238-5.745c.191-.806.382-1.424.62-1.898a3.22 3.22 0 01.953-1.14c.381-.284.857-.427 1.429-.522.572-.095 1.287-.142 2.144-.142h7.814l-.667 3.18h-6.432c-.477 0-.858 0-1.096.048-.286.047-.476.142-.667.237a1.701 1.701 0 00-.381.57 3.91 3.91 0 00-.238.95l-.667 3.18c-.096.522-.143.854-.143.996 0 .333.095.57.333.665.238.095.715.142 1.43.142h6.432l-.667 3.18zm-13.484 0h-3.049c-1.382 0-2.383-.143-2.907-.428-.571-.284-.81-.806-.81-1.661 0-.475.096-.997.239-1.661l2.954-13.766h3.764l-.953 4.367h3.621l-.715 3.18h-3.573L107.2 18.8c-.096.522-.143.854-.143.996 0 .333.095.57.333.665.239.095.715.142 1.43.142h1.572l-.667 3.18zM85.95 18.798h-8.72l.668-3.18h5.098c.143-.57.19-.902.19-.95 0-.616-.476-.901-1.477-.901h-3.001c-.429 0-.763 0-1 .047a1.792 1.792 0 00-.668.238c-.19.142-.333.332-.429.57a7.91 7.91 0 00-.285.949l-.667 3.18c-.096.427-.144.712-.144.997 0 .332.096.57.334.664.238.095.715.19 1.43.19h7.718l-.667 3.133h-9.148a17.95 17.95 0 01-1.81-.095 3.269 3.269 0 01-1.144-.332c-.286-.142-.477-.38-.62-.617-.142-.238-.19-.57-.19-.997 0-.237 0-.475.048-.76.047-.284.095-.57.19-.901l1.191-5.697c.286-1.329.81-2.278 1.62-2.895.81-.57 2.001-.855 3.526-.855h5.384c1.382 0 2.382.143 2.906.428.572.285.81.854.81 1.661a7.4 7.4 0 01-.19 1.661L85.95 18.8zm-16.533 4.985h-3.764l3.716-17.516h3.764l-3.716 17.516zm-5.289 0h-3.764l2.811-13.197h3.764l-2.81 13.197zm3.145-14.526h-3.764l.62-2.99h3.763l-.62 2.99z" fill="#595959"/></g><defs><clipPath id="clip0_5143_8327"><path fill="#fff" d="M0 0h172v30H0z"/></clipPath></defs></svg>