<svg width="420" height="168" fill="none" xmlns="http://www.w3.org/2000/svg"><path d="M61.576 167.319c-9.717 0-18.2-1.159-25.449-3.478-7.249-2.319-13.341-5.488-18.277-9.508-4.936-4.174-8.869-8.966-11.799-14.377-2.776-5.565-4.704-11.517-5.784-17.856h21.748c.77 3.556 2.082 6.957 3.933 10.204 1.85 3.092 4.318 5.797 7.403 8.116 3.239 2.319 7.172 4.174 11.8 5.565 4.626 1.237 10.102 1.855 16.425 1.855 12.956 0 22.75-2.473 29.383-7.42 6.786-4.947 10.179-11.054 10.179-18.32 0-4.483-.771-8.27-2.313-11.362-1.388-3.092-3.856-5.798-7.404-8.116-3.393-2.319-7.943-4.406-13.65-6.262-5.552-1.855-12.416-3.71-20.59-5.565-9.1-2.01-16.966-4.174-23.599-6.493-6.478-2.474-11.876-5.488-16.195-9.044-4.164-3.71-7.326-8.116-9.485-13.218-2.005-5.101-3.008-11.362-3.008-18.783 0-6.029 1.311-11.594 3.933-16.696 2.622-5.256 6.324-9.817 11.105-13.682C24.868 9.014 30.806 6 37.747 3.836 44.842 1.516 52.785.357 61.577.357c8.637 0 16.194 1.16 22.672 3.479C90.727 6 96.203 9.014 100.676 12.879c4.627 3.865 8.251 8.426 10.873 13.682 2.622 5.102 4.473 10.667 5.553 16.696H95.354c-.77-3.246-1.928-6.26-3.47-9.044-1.542-2.937-3.702-5.41-6.478-7.42-2.622-2.165-5.938-3.865-9.948-5.102-3.856-1.236-8.483-1.855-13.882-1.855-11.105 0-19.742 2.319-25.912 6.957-6.015 4.483-9.022 9.971-9.022 16.464 0 4.174.77 7.807 2.313 10.9 1.543 2.936 3.933 5.565 7.172 7.883 3.24 2.165 7.326 4.097 12.262 5.798 5.09 1.546 11.105 3.092 18.046 4.638 10.025 2.164 18.585 4.637 25.68 7.42 7.25 2.628 13.111 5.875 17.583 9.74 4.628 3.864 7.944 8.425 9.949 13.681 2.159 5.256 3.239 11.517 3.239 18.783 0 6.339-1.388 12.291-4.165 17.856-2.776 5.411-6.786 10.203-12.03 14.377-5.244 4.02-11.645 7.189-19.203 9.508-7.557 2.319-16.195 3.478-25.912 3.478zM133.564 2.676h21.284l86.99 126.381V2.677h21.285V165h-21.285l-86.99-126.38V165h-21.284V2.676zm140.237 145.628l64.78-56.35c4.935-4.174 8.945-7.961 12.03-11.362 3.239-3.401 5.784-6.57 7.635-9.508 1.851-3.092 3.085-6.106 3.702-9.044.771-2.937 1.156-6.106 1.156-9.507 0-9.121-2.699-16.62-8.097-22.494-5.398-6.029-12.802-9.044-22.21-9.044-11.26 0-19.897 3.092-25.912 9.276-6.015 6.03-9.023 14.61-9.023 25.74h-21.747c0-7.884 1.311-15.15 3.933-21.798 2.776-6.802 6.632-12.6 11.567-17.392 5.09-4.792 11.106-8.502 18.046-11.13 6.941-2.783 14.653-4.175 23.136-4.175 8.174 0 15.501 1.315 21.979 3.943 6.478 2.473 11.953 6.029 16.426 10.667 4.473 4.483 7.866 9.816 10.18 16 2.313 6.184 3.47 12.986 3.47 20.407 0 5.565-.848 10.744-2.545 15.537-1.697 4.792-4.087 9.352-7.172 13.681-2.931 4.329-6.555 8.58-10.874 12.754-4.164 4.02-8.791 8.194-13.881 12.522l-48.354 40.118h85.139v19.015H273.801v-17.856zM397.843 2.676h21.748V165h-21.748V2.676z" fill="#38454B"/></svg>