<?xml version="1.0" encoding="utf-8"?><svg viewBox="0 0 36 44" xmlns="http://www.w3.org/2000/svg" xmlns:xlink="http://www.w3.org/1999/xlink"><style>:root>svg{display:none}:root>svg:target{display:block}</style><svg fill="none" viewBox="0 0 18 18" id="icon-arrow-next" xmlns="http://www.w3.org/2000/svg"><path d="M13.732 10.136H0v-2.25h13.732L6.866 1h3.146L18 9.01 10.033 17H6.887l6.845-6.864z" fill="currentColor"/></svg><svg fill="none" viewBox="0 0 18 20" id="icon-arrow-point" xmlns="http://www.w3.org/2000/svg"><path d="M3 15a1 1 0 01-1-1V2h2v11h9.341L8.5 8H11l6 6.008L11 20H8.5l4.856-5H3z" fill="currentColor"/></svg><svg fill="none" viewBox="0 0 10 10" id="icon-arrow-prev" xmlns="http://www.w3.org/2000/svg"><path d="M2.371 5.631H10V4.38H2.371L6.186.556H4.438L0 5.006l4.426 4.439h1.748L2.37 5.63z" fill="currentColor"/></svg><svg fill="none" viewBox="0 0 10 10" id="icon-arrow-top-left" xmlns="http://www.w3.org/2000/svg"><path d="M2.39 3.303L7.977 8.89l.913-.913-5.586-5.585H8.89l-1.28-1.28H1.111v6.481l1.28 1.28V3.303z" fill="currentColor"/></svg><svg fill="none" viewBox="0 0 16 17" id="icon-arrow-top-right" xmlns="http://www.w3.org/2000/svg"><path d="M12.175 5.786l-8.937 8.936-1.46-1.46 8.937-8.936H1.777l2.048-2.048h10.396v10.37l-2.047 2.047v-8.91z" fill="currentColor"/></svg><svg fill="none" viewBox="0 0 32 32" id="icon-attach" xmlns="http://www.w3.org/2000/svg"><path fill-rule="evenodd" clip-rule="evenodd" d="M8 8a8 8 0 1116 0v17a1 1 0 11-2 0V8a6 6 0 00-12 0v18a4 4 0 008 0V10a2 2 0 10-4 0v11a1 1 0 11-2 0V10a4 4 0 018 0v16a6 6 0 01-12 0V8z" fill="currentColor"/></svg><svg fill="none" viewBox="0 0 7 6" id="icon-caret" xmlns="http://www.w3.org/2000/svg"><path d="M0 .5h7l-3.5 5L0 .5z" fill="currentColor"/></svg><svg fill="none" viewBox="0 0 10 10" id="icon-check-list" xmlns="http://www.w3.org/2000/svg"><path fill-rule="evenodd" clip-rule="evenodd" d="M8.93 1.654a1 1 0 00-1.393.125L3.9 6.076l-1.438-1.7a1 1 0 00-1.393-.124.964.964 0 00-.127 1.372L3.141 8.22c.188.222.467.35.76.35a.995.995 0 00.76-.35l4.395-5.195a.964.964 0 00-.126-1.372z" fill="#999"/></svg><svg fill="none" viewBox="0 0 18 18" id="icon-close" xmlns="http://www.w3.org/2000/svg"><rect y=".001" width="18" height="18" rx="9" fill="currentColor"/><path d="M6.71 5.057A1.169 1.169 0 105.057 6.71L7.347 9l-2.29 2.291a1.169 1.169 0 001.653 1.653L9 10.654l2.29 2.29a1.169 1.169 0 001.653-1.653l-2.29-2.29 2.29-2.29a1.169 1.169 0 10-1.653-1.654L9 7.347l-2.29-2.29z" fill="#fff"/></svg><svg fill="none" viewBox="0 0 14 14" id="icon-close-bold" xmlns="http://www.w3.org/2000/svg"><path d="M4.328 2.4a1.364 1.364 0 00-1.929 1.928L5.072 7 2.399 9.672a1.364 1.364 0 001.929 1.929L7 8.928l2.672 2.673a1.364 1.364 0 001.929-1.929L8.928 7l2.673-2.672a1.364 1.364 0 00-1.929-1.929L7 5.072 4.328 2.399z" fill="currentColor"/></svg><svg fill="none" viewBox="0 0 32 26" id="icon-close-thin" xmlns="http://www.w3.org/2000/svg"><rect x="5" y="1" width="32" height="2" rx="1" transform="rotate(45 5 1)" fill="currentColor"/><rect x="4" y="23.627" width="32" height="2" rx="1" transform="rotate(-45 4 23.627)" fill="currentColor"/></svg><svg fill="none" viewBox="0 0 36 44" id="icon-doc" xmlns="http://www.w3.org/2000/svg"><path d="M25.586 1L35 10.416V43H1V1h24.586z" fill="#fff" stroke="#1A1A1A" stroke-width="2"/><path d="M4.8 31h2.45c.527 0 .997.074 1.41.22.413.14.763.35 1.05.63.287.28.507.63.66 1.05.153.42.23.904.23 1.45v.2c0 .56-.08 1.057-.24 1.49-.153.427-.38.787-.68 1.08a2.945 2.945 0 01-1.08.66c-.427.147-.91.22-1.45.22H4.8v-7zm2.25 5.76c.267 0 .52-.036.76-.11.24-.08.45-.206.63-.38.187-.173.333-.4.44-.68.107-.28.16-.626.16-1.04v-.2c0-.386-.05-.713-.15-.98a1.716 1.716 0 00-.41-.66 1.45 1.45 0 00-.6-.36 2.359 2.359 0 00-.73-.11H6.3v4.52h.75zm7.45 1.36c-.44 0-.86-.066-1.26-.2a2.871 2.871 0 01-1.05-.63c-.3-.286-.54-.653-.72-1.1-.18-.453-.27-1-.27-1.64v-.2c0-.613.09-1.136.27-1.57.18-.44.42-.8.72-1.08.306-.28.656-.486 1.05-.62.4-.133.82-.2 1.26-.2.44 0 .856.067 1.25.2.4.134.75.34 1.05.62.306.28.55.64.73 1.08.18.434.27.957.27 1.57v.2c0 .64-.09 1.187-.27 1.64-.18.447-.424.814-.73 1.1-.3.287-.65.497-1.05.63-.394.134-.81.2-1.25.2zm0-1.26c.226 0 .443-.036.65-.11.213-.08.4-.21.56-.39.16-.18.286-.416.38-.71.1-.293.15-.66.15-1.1v-.2c0-.413-.05-.76-.15-1.04a1.85 1.85 0 00-.38-.68 1.353 1.353 0 00-.56-.37 1.865 1.865 0 00-1.31 0c-.207.074-.39.197-.55.37-.16.174-.29.4-.39.68-.094.28-.14.627-.14 1.04v.2c0 .44.046.807.14 1.1.1.294.23.53.39.71.16.18.343.31.55.39.213.074.433.11.66.11zm7.047 1.26c-.46 0-.883-.066-1.27-.2-.38-.133-.71-.34-.99-.62-.28-.286-.5-.656-.66-1.11-.153-.453-.23-1-.23-1.64v-.2c0-.613.08-1.136.24-1.57.167-.44.39-.8.67-1.08.287-.28.62-.486 1-.62.387-.133.8-.2 1.24-.2.394 0 .764.047 1.11.14.347.094.65.24.91.44.267.194.48.444.64.75.167.307.264.67.29 1.09h-1.56c-.073-.4-.233-.693-.48-.88-.246-.186-.55-.28-.91-.28-.206 0-.406.037-.6.11a1.256 1.256 0 00-.5.37c-.146.174-.266.4-.36.68-.086.28-.13.63-.13 1.05v.2c0 .44.047.81.14 1.11.094.294.214.53.36.71.154.174.324.3.51.38.194.074.387.11.58.11.38 0 .694-.096.94-.29.247-.2.397-.49.45-.87h1.56c-.033.44-.13.814-.29 1.12-.16.307-.37.557-.63.75-.26.194-.563.334-.91.42-.346.087-.72.13-1.12.13zm5.356-3.77L24.653 31h1.68l1.54 2.29 1.55-2.29h1.63l-2.23 3.32 2.33 3.68h-1.69l-1.62-2.62-1.63 2.62h-1.66l2.35-3.65z" fill="#1A1A1A"/></svg><svg fill="none" viewBox="0 0 36 44" id="icon-docx" xmlns="http://www.w3.org/2000/svg"><path d="M25.586 1L35 10.416V43H1V1h24.586z" fill="#fff" stroke="#1A1A1A" stroke-width="2"/><path d="M4.8 31h2.45c.527 0 .997.074 1.41.22.413.14.763.35 1.05.63.287.28.507.63.66 1.05.153.42.23.904.23 1.45v.2c0 .56-.08 1.057-.24 1.49-.153.427-.38.787-.68 1.08a2.945 2.945 0 01-1.08.66c-.427.147-.91.22-1.45.22H4.8v-7zm2.25 5.76c.267 0 .52-.036.76-.11.24-.08.45-.206.63-.38.187-.173.333-.4.44-.68.107-.28.16-.626.16-1.04v-.2c0-.386-.05-.713-.15-.98a1.716 1.716 0 00-.41-.66 1.45 1.45 0 00-.6-.36 2.359 2.359 0 00-.73-.11H6.3v4.52h.75zm7.45 1.36c-.44 0-.86-.066-1.26-.2a2.871 2.871 0 01-1.05-.63c-.3-.286-.54-.653-.72-1.1-.18-.453-.27-1-.27-1.64v-.2c0-.613.09-1.136.27-1.57.18-.44.42-.8.72-1.08.306-.28.656-.486 1.05-.62.4-.133.82-.2 1.26-.2.44 0 .856.067 1.25.2.4.134.75.34 1.05.62.306.28.55.64.73 1.08.18.434.27.957.27 1.57v.2c0 .64-.09 1.187-.27 1.64-.18.447-.424.814-.73 1.1-.3.287-.65.497-1.05.63-.394.134-.81.2-1.25.2zm0-1.26c.226 0 .443-.036.65-.11.213-.08.4-.21.56-.39.16-.18.286-.416.38-.71.1-.293.15-.66.15-1.1v-.2c0-.413-.05-.76-.15-1.04a1.85 1.85 0 00-.38-.68 1.353 1.353 0 00-.56-.37 1.865 1.865 0 00-1.31 0c-.207.074-.39.197-.55.37-.16.174-.29.4-.39.68-.094.28-.14.627-.14 1.04v.2c0 .44.046.807.14 1.1.1.294.23.53.39.71.16.18.343.31.55.39.213.074.433.11.66.11zm7.047 1.26c-.46 0-.883-.066-1.27-.2-.38-.133-.71-.34-.99-.62-.28-.286-.5-.656-.66-1.11-.153-.453-.23-1-.23-1.64v-.2c0-.613.08-1.136.24-1.57.167-.44.39-.8.67-1.08.287-.28.62-.486 1-.62.387-.133.8-.2 1.24-.2.394 0 .764.047 1.11.14.347.094.65.24.91.44.267.194.48.444.64.75.167.307.264.67.29 1.09h-1.56c-.073-.4-.233-.693-.48-.88-.246-.186-.55-.28-.91-.28-.206 0-.406.037-.6.11a1.256 1.256 0 00-.5.37c-.146.174-.266.4-.36.68-.086.28-.13.63-.13 1.05v.2c0 .44.047.81.14 1.11.094.294.214.53.36.71.154.174.324.3.51.38.194.074.387.11.58.11.38 0 .694-.096.94-.29.247-.2.397-.49.45-.87h1.56c-.033.44-.13.814-.29 1.12-.16.307-.37.557-.63.75-.26.194-.563.334-.91.42-.346.087-.72.13-1.12.13zm5.356-3.77L24.653 31h1.68l1.54 2.29 1.55-2.29h1.63l-2.23 3.32 2.33 3.68h-1.69l-1.62-2.62-1.63 2.62h-1.66l2.35-3.65z" fill="#1A1A1A"/></svg><svg fill="none" viewBox="0 0 36 44" id="icon-jpeg" xmlns="http://www.w3.org/2000/svg"><path d="M25.586 1L35 10.416V43H1V1h24.586z" fill="#fff" stroke="#1A1A1A" stroke-width="2"/><path d="M6.55 38.12c-.747 0-1.313-.2-1.7-.6-.38-.4-.58-.973-.6-1.72h1.42c.027.7.32 1.05.88 1.05.313 0 .54-.1.68-.3.147-.2.22-.55.22-1.05V31h1.5v4.5c0 .474-.057.877-.17 1.21a2.062 2.062 0 01-.47.81 1.91 1.91 0 01-.76.46c-.293.094-.627.14-1 .14zM10.152 31h2.7c.947 0 1.65.21 2.11.63.46.414.69.97.69 1.67s-.23 1.26-.69 1.68c-.46.414-1.163.62-2.11.62h-1.2V38h-1.5v-7zm2.55 3.36c.533 0 .907-.09 1.12-.27.22-.18.33-.443.33-.79 0-.34-.11-.6-.33-.78-.213-.186-.587-.28-1.12-.28h-1.05v2.12h1.05zm6.65 3.76c-.466 0-.9-.066-1.3-.2a2.69 2.69 0 01-1.03-.63c-.286-.286-.513-.656-.68-1.11-.16-.453-.24-.996-.24-1.63v-.2c0-.606.087-1.126.26-1.56.174-.44.407-.8.7-1.08a2.705 2.705 0 011.02-.63c.387-.133.794-.2 1.22-.2.8 0 1.457.194 1.97.58.52.38.847.96.98 1.74h-1.56a1.89 1.89 0 00-.26-.52c-.1-.14-.213-.246-.34-.32-.12-.08-.25-.133-.39-.16a1.68 1.68 0 00-1.03.07c-.2.074-.376.197-.53.37-.146.174-.263.4-.35.68-.086.28-.13.624-.13 1.03v.2c0 .434.047.797.14 1.09.1.294.227.53.38.71.16.18.34.31.54.39.207.074.417.11.63.11.214 0 .414-.026.6-.08.194-.06.36-.146.5-.26.147-.12.264-.27.35-.45.094-.186.15-.41.17-.67h-1.42v-1.04h2.85v.4c0 .58-.073 1.084-.22 1.51-.146.42-.353.77-.62 1.05-.26.274-.58.477-.96.61-.373.134-.79.2-1.25.2z" fill="#1A1A1A"/></svg><svg fill="none" viewBox="0 0 36 44" id="icon-jpg" xmlns="http://www.w3.org/2000/svg"><path d="M25.586 1L35 10.416V43H1V1h24.586z" fill="#fff" stroke="#1A1A1A" stroke-width="2"/><path d="M6.55 38.12c-.747 0-1.313-.2-1.7-.6-.38-.4-.58-.973-.6-1.72h1.42c.027.7.32 1.05.88 1.05.313 0 .54-.1.68-.3.147-.2.22-.55.22-1.05V31h1.5v4.5c0 .474-.057.877-.17 1.21a2.062 2.062 0 01-.47.81 1.91 1.91 0 01-.76.46c-.293.094-.627.14-1 .14zM10.152 31h2.7c.947 0 1.65.21 2.11.63.46.414.69.97.69 1.67s-.23 1.26-.69 1.68c-.46.414-1.163.62-2.11.62h-1.2V38h-1.5v-7zm2.55 3.36c.533 0 .907-.09 1.12-.27.22-.18.33-.443.33-.79 0-.34-.11-.6-.33-.78-.213-.186-.587-.28-1.12-.28h-1.05v2.12h1.05zm6.65 3.76c-.466 0-.9-.066-1.3-.2a2.69 2.69 0 01-1.03-.63c-.286-.286-.513-.656-.68-1.11-.16-.453-.24-.996-.24-1.63v-.2c0-.606.087-1.126.26-1.56.174-.44.407-.8.7-1.08a2.705 2.705 0 011.02-.63c.387-.133.794-.2 1.22-.2.8 0 1.457.194 1.97.58.52.38.847.96.98 1.74h-1.56a1.89 1.89 0 00-.26-.52c-.1-.14-.213-.246-.34-.32-.12-.08-.25-.133-.39-.16a1.68 1.68 0 00-1.03.07c-.2.074-.376.197-.53.37-.146.174-.263.4-.35.68-.086.28-.13.624-.13 1.03v.2c0 .434.047.797.14 1.09.1.294.227.53.38.71.16.18.34.31.54.39.207.074.417.11.63.11.214 0 .414-.026.6-.08.194-.06.36-.146.5-.26.147-.12.264-.27.35-.45.094-.186.15-.41.17-.67h-1.42v-1.04h2.85v.4c0 .58-.073 1.084-.22 1.51-.146.42-.353.77-.62 1.05-.26.274-.58.477-.96.61-.373.134-.79.2-1.25.2z" fill="#1A1A1A"/></svg><svg fill="none" viewBox="0 0 36 44" id="icon-pdf" xmlns="http://www.w3.org/2000/svg"><path d="M25.586 1L35 10.416V43H1V1h24.586z" fill="#fff" stroke="#1A1A1A" stroke-width="2"/><path d="M4.8 31h2.7c.947 0 1.65.21 2.11.63.46.414.69.97.69 1.67s-.23 1.26-.69 1.68c-.46.414-1.163.62-2.11.62H6.3V38H4.8v-7zm2.55 3.36c.533 0 .907-.09 1.12-.27.22-.18.33-.443.33-.79 0-.34-.11-.6-.33-.78-.213-.186-.587-.28-1.12-.28H6.3v2.12h1.05zm3.7-3.36h2.45c.527 0 .997.074 1.41.22.414.14.764.35 1.05.63.287.28.507.63.66 1.05.154.42.23.904.23 1.45v.2c0 .56-.08 1.057-.24 1.49-.153.427-.38.787-.68 1.08a2.944 2.944 0 01-1.08.66c-.426.147-.91.22-1.45.22h-2.35v-7zm2.25 5.76c.267 0 .52-.036.76-.11.24-.08.45-.206.63-.38.187-.173.334-.4.44-.68.107-.28.16-.626.16-1.04v-.2c0-.386-.05-.713-.15-.98a1.716 1.716 0 00-.41-.66 1.45 1.45 0 00-.6-.36 2.36 2.36 0 00-.73-.11h-.85v4.52h.75zM17.75 31h4.8v1.24h-3.3V34h3v1.2h-3V38h-1.5v-7z" fill="#1A1A1A"/></svg><svg fill="none" viewBox="0 0 14 14" id="icon-plus" xmlns="http://www.w3.org/2000/svg"><path d="M7.778 6.222V0H6.222v6.222H0v1.556h6.222V14h1.556V7.778H14V6.222H7.778z" fill="currentColor"/></svg></svg>